<svg xmlns="http://www.w3.org/2000/svg" viewBox="0 0 48 48"><linearGradient id="a" x1="15" x2="33.6" y1="6.5" y2="42.6" gradientUnits="userSpaceOnUse"><stop offset="0" stop-color="#5961c3"/><stop offset="1" stop-color="#3a41ac"/></linearGradient><path fill="url(#a)" d="M44 24a20 20 0 1 1-40 0 20 20 0 0 1 40 0z"/><radialGradient id="b" cx="24" cy="20" r="9.5" gradientUnits="userSpaceOnUse"><stop offset="0"/><stop offset="1" stop-opacity="0"/></radialGradient><circle cx="24" cy="20" r="9.5" fill="url(#b)"/><radialGradient id="c" cx="23.9" cy="43.9" r="15" gradientUnits="userSpaceOnUse"><stop offset=".2"/><stop offset="1" stop-opacity="0"/></radialGradient><path fill="url(#c)" d="M24 44c5 0 10-2 14-6-2-5-8-9-14-9s-12 4-14 9c4 4 9 6 14 6z"/><linearGradient id="d" x1="21.1" x2="26.8" y1="11.9" y2="26" gradientUnits="userSpaceOnUse"><stop offset="0" stop-color="#a6acfc"/><stop offset=".3" stop-color="#a0a7fa"/><stop offset=".7" stop-color="#9198f4"/><stop offset="1" stop-color="#7b83eb"/></linearGradient><circle cx="24" cy="19" r="8" fill="url(#d)"/><linearGradient id="e" x1="21.7" x2="25.3" y1="30.1" y2="44" gradientUnits="userSpaceOnUse"><stop offset="0" stop-color="#a6acfc"/><stop offset=".3" stop-color="#a0a7fa"/><stop offset=".7" stop-color="#9198f4"/><stop offset="1" stop-color="#7b83eb"/></linearGradient><path fill="url(#e)" d="M24 44c5 0 10-2 13-5a14 14 0 0 0-26 0c3 3 8 5 13 5z"/></svg>