<svg xmlns="http://www.w3.org/2000/svg" xmlns:xlink="http://www.w3.org/1999/xlink" class="injected-svg DownloadModal__ImageFile-sc-p17csy-5 iIfSkb grid_media" data-name="Layer 1" viewBox="0 0 925 770"><defs><linearGradient id="b" x1="580.5" x2="580.5" y1="759" y2="113" gradientUnits="userSpaceOnUse"><stop offset="0" stop-color="gray" stop-opacity=".3"/><stop offset=".5" stop-color="gray" stop-opacity=".1"/><stop offset="1" stop-color="gray" stop-opacity=".1"/></linearGradient><linearGradient id="a" x1="345.9" x2="345.9" y1="617.2" y2="679.8" gradientUnits="userSpaceOnUse"><stop offset="0" stop-color="#e0e0e0"/><stop offset=".3" stop-color="#fccc63"/><stop offset=".8" stop-color="#f55f44"/></linearGradient><linearGradient xlink:href="#a" id="d" x1="420.9" x2="420.9" y1="617.2" y2="679.8"/><linearGradient xlink:href="#a" id="e" x1="467.9" x2="467.9" y1="617.2" y2="679.8"/><linearGradient xlink:href="#a" id="f" x1="543.7" x2="543.7" y1="617.2" y2="679.8"/><linearGradient xlink:href="#b" id="g" x1="580.5" x2="580.5" y1="835" y2="647.8"/><linearGradient id="c" x1="272.7" x2="272.7" y1="586.5" y2="732.2" gradientUnits="userSpaceOnUse"><stop offset="0" stop-color="#f2f2f2"/><stop offset=".3" stop-color="#e6e6e6"/><stop offset=".8" stop-color="#ccc"/></linearGradient><linearGradient xlink:href="#c" id="h" x1="272.4" x2="272.4" y1="606.9" y2="766.4"/><linearGradient xlink:href="#c" id="i" x1="596.5" x2="596.5" y1="606.9" y2="766.4"/><linearGradient xlink:href="#c" id="j" x1="592.4" x2="592.4" y1="620.8" y2="766.4"/><linearGradient xlink:href="#c" id="k" x1="574.7" x2="574.7" y1="699.5" y2="831.4"/><linearGradient xlink:href="#c" id="l" x1="482.2" x2="482.2" y1="737.4" y2="831.4"/><linearGradient xlink:href="#c" id="m" x1="665" x2="665" y1="752" y2="831.4"/><linearGradient xlink:href="#c" id="n" x1="802.7" x2="802.7" y1="737.4" y2="831.4"/><linearGradient xlink:href="#c" id="o" x1="358.4" x2="358.4" y1="737.4" y2="831.4"/><linearGradient xlink:href="#b" id="p" x1="710.4" x2="710.4" y1="616.6" y2="589.9"/><linearGradient xlink:href="#c" id="q" x1="710.4" x2="710.4" y1="590.9" y2="615.6"/><linearGradient xlink:href="#b" id="r" x1="771.6" x2="771.6" y1="746.8" y2="717.6"/><linearGradient id="s" x1="771.6" x2="771.6" y1="718.3" y2="746" gradientUnits="userSpaceOnUse"><stop offset="0" stop-color="#f2f2f2"/><stop offset=".3" stop-color="#e0e0e0"/><stop offset=".8" stop-color="#b3b3b3"/></linearGradient><linearGradient xlink:href="#b" id="t" x1="148.2" x2="148.2" y1="665.2" y2="633.1"/><linearGradient xlink:href="#c" id="u" x1="148.2" x2="148.2" y1="633.9" y2="664.5"/><linearGradient xlink:href="#b" id="v" x1="853.7" x2="853.7" y1="152.8" y2="65"/><linearGradient xlink:href="#c" id="w" x1="771.6" x2="771.6" y1="718.3" y2="746"/><linearGradient xlink:href="#b" id="x" x1="389.7" x2="389.7" y1="446.8" y2="404.9"/></defs><path fill="url(#b)" d="M722 412a151 151 0 0 0-17-70c-5-11-10-17-14-21a10 10 0 0 0-11-2 10 10 0 0 0-4 3c-5 5-10 12-14 19a151 151 0 0 0-18 72v15h-10V253c0-37-8-73-24-105-7-15-14-25-20-30a14 14 0 0 0-21 0 236 236 0 0 0-45 137v173h-8v-16a151 151 0 0 0-18-72c-4-7-8-14-13-19a10 10 0 0 0-12-2 10 10 0 0 0-3 2c-4 4-9 10-14 21a151 151 0 0 0-17 70v261h30l-3 22v64h24v-64l-3-22h29V435h8v237h24l-3 23v64h24v-64l-3-23h32l-4 23v64h25v-64l-4-23h19V435h10v239h8v-1h26l-3 22v64h24v-64l-3-22h26Z" opacity=".7" transform="translate(-137 -65)"/><path fill="#535461" d="M357 617h-23l4-28h15l4 28z"/><path d="M337 600h17l-1-8h-15l-1 8z" opacity=".1"/><path fill="#535461" d="M555 617h-23l4-28h15l4 28z"/><path d="M535 600h17l-1-8h-15l-1 8z" opacity=".1"/><path fill="#535461" d="M432 617h-23l4-28h15l4 28z"/><path d="M412 600h17l-1-8h-15l-1 8z" opacity=".1"/><path fill="#535461" d="M479 617h-23l4-28h15l4 28z"/><path d="M459 600h17l-1-8h-15l-1 8z" opacity=".1"/><path fill="#535461" d="M357 358h165v7H357z"/><path fill="#e0e0e0" d="M548 254a9 9 0 0 0-14 0c-5 5-9 11-13 19a151 151 0 0 0-17 70v253h73V342a150 150 0 0 0-16-69c-5-10-10-16-13-19Zm-209 0a9 9 0 0 1 13 0c5 5 9 11 13 19a151 151 0 0 1 17 70v253h-73V342a150 150 0 0 1 16-69c5-10 10-16 14-19Z"/><path fill="#535461" d="M310 347h17v21h-17v-21zm55 0h17v21h-17v-21zm139 0h17v21h-17v-21zm55 0h18v21h-18v-21z"/><path d="M365 272c-4-7-8-14-13-19a9 9 0 0 0-11-2 10 10 0 0 1 3 2c5 5 9 12 13 19a151 151 0 0 1 17 70v254h8V342a151 151 0 0 0-17-70Zm163 1c3-7 8-14 13-19a10 10 0 0 1 3-2 9 9 0 0 0-11 2c-5 5-9 12-13 19a151 151 0 0 0-17 70v254h8V343a151 151 0 0 1 17-70Z" opacity=".1"/><path fill="url(#a)" d="M334 617h23v63h-23z"/><path fill="url(#d)" d="M409 617h23v63h-23z"/><path fill="url(#e)" d="M456 617h23v63h-23z"/><path fill="url(#f)" d="M532 617h23v63h-23z"/><path fill="#eee" d="M452 55a13 13 0 0 0-19 0c-7 7-13 17-19 28-16 32-24 68-24 105v407h104V186c0-35-8-71-23-102-7-15-14-24-19-29Z"/><rect width="54.3" height="24.9" x="414" y="100" fill="#6c63ff" rx="11" ry="11"/><path fill="url(#g)" d="M822 738a83 83 0 0 0-165 14v1a77 77 0 0 0-9 2 76 76 0 0 0-143-13 75 75 0 0 0-21-5 82 82 0 0 0-5-18 76 76 0 0 0-151-2 82 82 0 0 0-8 26 76 76 0 0 0-43 92h607a76 76 0 0 0-62-97Z" opacity=".7" transform="translate(-137 -65)"/><circle cx="272.7" cy="659.4" r="72.8" fill="url(#c)"/><circle cx="272.4" cy="686.7" r="79.8" fill="url(#h)"/><circle cx="596.5" cy="686.7" r="79.8" fill="url(#i)"/><circle cx="592.4" cy="693.6" r="72.8" fill="url(#j)"/><path fill="url(#k)" d="M648 772a73 73 0 0 1-31 59h-85a73 73 0 1 1 116-59Z" transform="translate(-137 -65)"/><path fill="url(#l)" d="M555 810a73 73 0 0 1-3 21H413a73 73 0 0 1 69-94l6 1a72 72 0 0 1 20 4 73 73 0 0 1 47 68Z" transform="translate(-137 -65)"/><path fill="url(#m)" d="M738 825v6H593l-1-6a73 73 0 0 1 62-72 74 74 0 0 1 11-1h6a73 73 0 0 1 60 43l1 2a72 72 0 0 1 6 28Z" transform="translate(-137 -65)"/><path fill="url(#n)" d="M876 810a73 73 0 0 1-4 21H733a73 73 0 0 1-2-34l1-2a73 73 0 0 1 71-58 69 69 0 0 1 10 1 73 73 0 0 1 63 72Z" transform="translate(-137 -65)"/><path fill="url(#o)" d="m428 831 1-2a73 73 0 0 0-90-89 69 69 0 0 0-9 3 73 73 0 0 0-41 88h139Z" transform="translate(-137 -65)"/><circle cx="710.4" cy="603.3" r="13.4" fill="url(#p)" opacity=".7"/><circle cx="710.4" cy="603.3" r="12.4" fill="url(#q)"/><circle cx="771.6" cy="732.2" r="14.6" fill="url(#r)" opacity=".7"/><circle cx="771.6" cy="732.2" r="13.8" fill="url(#s)"/><circle cx="148.2" cy="649.1" r="16" fill="url(#t)" opacity=".7"/><circle cx="148.2" cy="649.1" r="15.3" fill="url(#u)"/><path fill="url(#v)" d="M889 82a44 44 0 0 0-13-11 44 44 0 1 0-22 82h2a44 44 0 0 0 33-71Z" opacity=".4" transform="translate(-137 -65)"/><path fill="#6c63ff" d="M758 44a42 42 0 0 1-39 41h-3a42 42 0 1 1 21-77 42 42 0 0 1 12 11 41 41 0 0 1 9 25Z" opacity=".2"/><path fill="#f55f44" d="M706 18a45 45 0 0 0-6 3 10 10 0 0 0-3 3 4 4 0 0 0-1 4l5 2a9 9 0 0 0 9-3l3-3c1-1 3-3 2-5l-3-2a13 13 0 0 0-9 2" opacity=".1"/><circle cx="691.1" cy="60.3" r="2.2" fill="#f55f44" opacity=".1"/><circle cx="735.6" cy="46.5" r="8" fill="#f55f44" opacity=".1"/><path fill="#f55f44" d="M749 19a11 11 0 1 1-12-11 42 42 0 0 1 12 11Zm1 49a41 41 0 0 1-31 17v-1a20 20 0 0 1 31-16Z" opacity=".1"/><circle cx="722.8" cy="344.7" r="5.1" fill="#535461" opacity=".3"/><circle cx="42.8" cy="478.7" r="5.1" fill="#535461" opacity=".3"/><circle cx="919.8" cy="507.7" r="5.1" fill="#535461" opacity=".3"/><circle cx="288.7" cy="266.1" r="5.1" fill="#535461" opacity=".3"/><circle cx="272" cy="148.8" r="5.1" fill="#535461" opacity=".3"/><circle cx="127.8" cy="381.1" r="5.1" fill="#535461" opacity=".3"/><path fill="#535461" d="M849 387h-4v-4h-2v4h-5v2h5v5h2v-5h4v-2zm76-157h-4v-4h-2v4h-5v2h5v5h2v-5h4v-2zm-323-88h-5v-4h-2v4h-4v2h4v5h2v-5h5v-2zm198 220h-5v-5h-2v5h-4v1h4v5h2v-5h5v-1zM634 512h-5v-4h-2v4h-4v2h4v5h2v-5h5v-2zM169 201h-5v-4h-1v4h-5v2h5v5h1v-5h5v-2zM11 260H6v-4H5v4H0v2h5v5h1v-5h5v-2zm221 186h-5v-4h-2v4h-4v2h4v5h2v-5h5v-2z" opacity=".3"/><circle cx="771.6" cy="732.2" r="13.8" fill="url(#w)"/><path fill="url(#x)" d="M406 413a21 21 0 0 0-6-5 21 21 0 1 0-10 39h1a21 21 0 0 0 15-34Z" opacity=".4" transform="translate(-137 -65)"/><path fill="#6c63ff" d="M272 361a20 20 0 0 1-18 20h-2a20 20 0 1 1 10-37 20 20 0 0 1 6 5 20 20 0 0 1 4 12Z" opacity=".2"/><path fill="#f55f44" d="M247 348a22 22 0 0 0-3 2 5 5 0 0 0-1 1 2 2 0 0 0 0 2 3 3 0 0 0 2 1 4 4 0 0 0 4-1l2-2 1-2a2 2 0 0 0-2-1 6 6 0 0 0-4 1" opacity=".1"/><circle cx="240.3" cy="368.7" r="1" fill="#f55f44" opacity=".1"/><circle cx="261.4" cy="362.1" r="3.8" fill="#f55f44" opacity=".1"/><path fill="#f55f44" d="M268 349a5 5 0 1 1-6-5 20 20 0 0 1 6 5Zm0 23a20 20 0 0 1-14 9v-1a9 9 0 0 1 15-8Z" opacity=".1"/><path d="M391 202h103v4H391z" opacity=".1"/></svg>