<svg xmlns="http://www.w3.org/2000/svg" class="injected-svg DownloadModal__ImageFile-sc-p17csy-5 iIfSkb grid_media" data-name="Layer 1" viewBox="0 0 906 511"><ellipse cx="834.8" cy="505.5" fill="#f2f2f2" rx="24" ry="4"/><path fill="#f2f2f2" d="M861 124h2v42h-2zm-32-27h12v414h-12z"/><path fill="#f2f2f2" d="M890 129H780a8 8 0 0 1-9-10L785 7a9 9 0 0 1 9-7h82a9 9 0 0 1 8 7l14 112a8 8 0 0 1-8 10Z"/><circle cx="861.8" cy="165.5" r="7" fill="#f2f2f2"/><path fill="#f2f2f2" d="M126 399c-5 18-20 30-36 41l-6 4-2 1c-9-4-18-8-25-14-7-7-11-18-7-27a18 18 0 0 1 2-4l1-1a19 19 0 0 1 32 6c1-11-7-20-16-26-8-7-18-14-19-24a20 20 0 0 1 5-17 28 28 0 0 1 18-9c13-2 25 5 34 14 15 14 24 36 19 56Z"/><path fill="#fff" d="M101 376a47 47 0 0 1 6 13 41 41 0 0 1 1 12 52 52 0 0 1-6 23 75 75 0 0 1-12 16l-6 4-2 1s1 0 0 0a41 41 0 0 0-13-36 42 42 0 0 0-17-9l1-1a43 43 0 0 1 7 2 42 42 0 0 1 19 19 43 43 0 0 1 5 24l1-1c7-7 13-14 17-22a48 48 0 0 0 5-23c0-9-4-17-9-24a101 101 0 0 0-19-20 115 115 0 0 0-24-14 1 1 0 0 1 0-1 1 1 0 0 1 0-1 1 1 0 0 1 1 0l3 2a116 116 0 0 1 24 16c7 6 13 13 18 20Z"/><path fill="#f2f2f2" d="M53 444h55a4 4 0 0 1 4 4l-7 57a4 4 0 0 1-4 3l-41 1a4 4 0 0 1-5-4l-7-57a4 4 0 0 1 5-4Z"/><circle cx="233.1" cy="502" r="6.9" fill="#ccc"/><circle cx="670.8" cy="502" r="6.9" fill="#ccc"/><path fill="#e6e6e6" d="M360 406H252a19 19 0 0 1-19-19v-74a19 19 0 0 1 19-19h108a19 19 0 0 1 19 19v74a19 19 0 0 1-19 19Zm146 0H398a19 19 0 0 1-19-19v-74a19 19 0 0 1 19-19h108a19 19 0 0 1 19 19v74a19 19 0 0 1-19 19Zm146 1H544a19 19 0 0 1-19-19v-74a19 19 0 0 1 19-19h108a19 19 0 0 1 19 19v74a19 19 0 0 1-19 19Z"/><path fill="#e6e6e6" d="M216 402h478v100H216z"/><path fill="#e6e6e6" d="M233 502h-21c-10 0-19-10-19-22V376h40Zm459 0h-21V360h40v118c0 13-9 24-19 24Z"/><path fill="#ccc" d="M380 422H233v-31q73-42 147 0Z"/><path fill="#ccc" d="M526 423H379v-31q74-42 147 0Z"/><path fill="#ccc" d="M672 423H525v-31q74-42 147 0Z"/><circle cx="204.8" cy="368.6" r="34.1" fill="#ccc"/><circle cx="703.7" cy="367.5" r="34.1" fill="#ccc"/><path fill="#ffb8b8" d="M603 301a11 11 0 0 1 0 1l41 29 11-6 10 16-18 11a8 8 0 0 1-10-1l-41-39a10 10 0 1 1 7-11Z"/><path fill="#6c63ff" d="M645 328a4 4 0 0 1 3-3l20-9a12 12 0 0 1 14 21l-17 15a5 5 0 0 1-7-1l-12-19a4 4 0 0 1-1-4Z"/><path fill="#3f3d56" d="m603 303-1-8c0-3-2-5-3-4h-12c-2 1-6 3-5 5v2l3 41c0 2 4 4 5 4l12-1c2 0 3-2 3-5l-2-29Z"/><path fill="#fff" d="m601 295 3 42c1 2 0 4-2 4l-12 1-2-3-3-43c-1-2 0-3 2-3h1a2 2 0 0 0 1 2l7-1 1-2h2c1 0 2 1 2 3Z"/><path fill="#ffb8b8" d="m434 393-4-12 43-20 5 17-44 15z"/><path fill="#2f2e41" d="m423 400-12-38a15 15 0 0 1 20 10l7 23Zm181 1a52 52 0 0 1-27-5l-50-35-59 22a7 7 0 0 1-8-4l-3-6a6 6 0 0 1 3-9l56-25a33 33 0 0 1 22-2l78 20 21 24v1a43 43 0 0 1-33 19Z"/><circle cx="667.6" cy="274.2" r="24.6" fill="#ffb8b8"/><path fill="#6c63ff" d="m642 392-39-29 27-19c-1-3-4-17 14-27l13-7a19 19 0 0 1 13-5 19 19 0 0 1 18 24c-4 13-11 30-18 38a233 233 0 0 1-27 25Z"/><path fill="#ffb8b8" d="m440 403-4-11 43-21 6 17-45 15z"/><path fill="#2f2e41" d="m430 410-13-37v-1a15 15 0 0 1 20 10l8 23Zm180 1a52 52 0 0 1-27-5l-50-34-59 21a7 7 0 0 1-8-3l-3-7a6 6 0 0 1 3-9l57-25a33 33 0 0 1 21-2l78 20 21 25a43 43 0 0 1-33 19Z"/><path fill="#ffb8b8" d="M599 330a11 11 0 0 1 1 2l48 8 8-10 16 10-12 18a8 8 0 0 1-9 3l-54-17a10 10 0 1 1 2-14Z"/><path fill="#6c63ff" d="M648 337a4 4 0 0 1 1-4l15-17a12 12 0 0 1 21 13l-9 21a5 5 0 0 1-6 2l-20-12a4 4 0 0 1-2-3Z"/><path fill="#2f2e41" d="M661 301a54 54 0 0 0 11-32 33 33 0 0 1-11 6c-4 1-9 1-13-1-6-3-9-9-8-15s5-12 10-15a25 25 0 0 1 18-1 22 22 0 0 1 24-3c8 4 13 14 14 24s-2 19-4 28v1l-3 9-18-4-20 3Z"/><path fill="#3f3d56" d="M599 304h-10a1 1 0 0 1 0-2h10a1 1 0 1 1 0 2Zm1 5h-11a1 1 0 1 1 0-2h11a1 1 0 0 1 0 2Zm0 5h-10a1 1 0 0 1 0-2h10a1 1 0 0 1 0 2Zm305 197H1a1 1 0 0 1 0-2h904a1 1 0 0 1 0 2Z"/><path fill="#f2f2f2" d="M481 178H380a9 9 0 0 1-9-9V82a9 9 0 0 1 9-9h101a9 9 0 0 1 9 9v87a9 9 0 0 1-9 9ZM380 75a7 7 0 0 0-7 7v87a7 7 0 0 0 7 7h101a7 7 0 0 0 7-7V82a7 7 0 0 0-7-7Z"/><path fill="#e6e6e6" d="M466 164h-71a9 9 0 0 1-9-8V95a9 9 0 0 1 9-9h71a9 9 0 0 1 9 9v61a9 9 0 0 1-9 8Z"/><circle cx="430.8" cy="54.5" r="5" fill="#f2f2f2"/><path fill="#f2f2f2" d="m441 74-10-18-11 18-1-1 12-20 12 20-2 1z"/><path fill="#6c63ff" d="M442 118a21 21 0 0 0 0-4h-15a4 4 0 0 0-4 4v21a21 21 0 0 0 19-21Z"/><path fill="#fff" d="M421 140a22 22 0 1 1 22-27v1h-16a3 3 0 0 0-3 3v23h-3Zm0-42a20 20 0 0 0 0 40h1v-20a5 5 0 0 1 5-5h14a20 20 0 0 0-20-15Z"/><path fill="#fff" d="M451 147h-24a5 5 0 0 1-5-5v-4h1a20 20 0 0 0 18-24v-2h10a5 5 0 0 1 5 5v24a5 5 0 0 1-5 6Zm-27-7v2a3 3 0 0 0 3 3h24a3 3 0 0 0 3-3v-24a3 3 0 0 0-3-3h-8a22 22 0 0 1 0 3 22 22 0 0 1-19 22Z"/></svg>