<svg xmlns="http://www.w3.org/2000/svg" class="injected-svg DownloadModal__ImageFile-sc-p17csy-5 iIfSkb grid_media" data-name="Layer 1" viewBox="0 0 1028 599"><circle cx="332" cy="292" r="292" fill="#f2f2f2"/><path fill="#3f3d56" d="M1028 518a14 14 0 0 1 0 2c-7 44-235 79-514 79S7 564 0 520a14 14 0 0 1 0-2v-2c3-18 44-35 109-48 53-11 124-19 205-25a3034 3034 0 0 1 363-2l32 2c71 5 135 12 186 21 31 5 58 11 79 18 32 10 52 21 54 34v2Z"/><ellipse cx="501" cy="572" opacity=".1" rx="165" ry="24"/><path d="m974 482-19 4a617 617 0 0 1-237-2c-25-6-40-13-40-21s11-14 31-20c71 5 135 12 186 21 31 5 58 11 79 18Zm-442-11c0 15-95 27-212 27s-212-12-212-27a4 4 0 0 1 1-3c53-11 124-19 205-25h6c117 0 212 13 212 28Z" opacity=".1"/><path fill="#6c63ff" d="M417 335h42v135h-42zm-137-63h42v198h-42zm-136 0h42v198h-42zm68 0h42v135h-42zm135 0h42v39h-42z"/><path fill="#8a8b8c" d="M347 335h42v135h-42z"/><path fill="#6c63ff" d="M417 272h110v39H417zm398-12q43 0 73 30a98 98 0 0 1 22 33 107 107 0 0 1 0 78 94 94 0 0 1-22 32 105 105 0 0 1-34 23 101 101 0 0 1-39 8 99 99 0 0 1-39-8 105 105 0 0 1-55-55 102 102 0 0 1 0-78 102 102 0 0 1 23-33q29-30 71-30Zm0 18q-34 0-58 25a88 88 0 0 0-19 27 81 81 0 0 0 0 63 86 86 0 0 0 46 46 83 83 0 0 0 63 0 88 88 0 0 0 28-19q24-23 24-58a84 84 0 0 0-6-32 81 81 0 0 0-18-27q-25-25-60-25Zm-1 67-13 7a14 14 0 0 0-6-6 12 12 0 0 0-6-2q-13 0-13 18 0 8 3 13t10 5q9 0 13-9l12 7a30 30 0 0 1-26 16q-14 0-22-9-9-8-9-23t9-23q8-9 21-9 19 0 27 15Zm59 0-14 7a14 14 0 0 0-5-6 12 12 0 0 0-6-2q-14 0-14 18 0 8 4 13 3 5 10 5 9 0 13-9l12 7a31 31 0 0 1-11 11 29 29 0 0 1-15 5q-14 0-23-9-8-8-8-23t9-23q8-9 21-9 19 0 27 15Z"/><path d="M753 510c0 49-68 34-151 34s-150 15-150-34 68-59 151-59 150 11 150 59Z" opacity=".1"/><path fill="#3f3d56" d="M753 498c0 49-68 34-151 34s-150 15-150-34 68-59 151-59 150 11 150 59Z"/><path fill="#2f2e41" d="m740 411 3 14-16 49a1 1 0 0 1-1 0l-2-19 14-44a1 1 0 0 1 2 0Z"/><path fill="#f2f2f2" d="m738 412 3 12-13 45-3-14 13-43z"/><path fill="#2f2e41" d="M669 478c1 2 55 0 56-1a11 11 0 0 0 1-2l1-2-2-17-54-2-2 21a16 16 0 0 0 0 3Z"/><path d="m718 458 1 15h-24v-15h23zm-31 5v6h-14v-6h14zm-18 15c1 2 55 0 56-1a11 11 0 0 0 1-2h-57a16 16 0 0 0 0 3Z" opacity=".1"/><path fill="#2f2e41" d="M585 423h15l36-15s26-10 24 10l-6 47s-11-5-18-4-2-32-2-32-52 25-56 22-6-26-6-26Z"/><path d="M585 423h15l36-15s26-10 24 10l-6 47s-11-5-18-4-2-32-2-32-52 25-56 22-6-26-6-26Z" opacity=".1"/><path fill="#a0616a" d="m608 376 18 26 42 35s39 9 33 15-37-6-37-6-48-35-50-38l-19-27Z"/><path d="m608 376 18 26 42 35s39 9 33 15-37-6-37-6-48-35-50-38l-19-27Z" opacity=".1"/><circle cx="605.7" cy="324.3" r="23.8" fill="#a0616a"/><path fill="#a0616a" d="M604 345s-8 14-9 22-24-15-24-15l-3-8s21-10 19-18 17 19 17 19Z"/><path fill="#d0cde1" d="m598 356 11 22s-2 11-7 12-22-13-22-13Z"/><path fill="#a0616a" d="m608 387 22 28 52 39s37 8 29 14-33-6-33-6-52-28-63-39l-32-32Z"/><path fill="#2f2e41" d="m579 431 7 10 37-12a30 30 0 0 1 25 3c7 4 11 11 2 21-20 19-32 9-32 9s-64 30-75 15-11-22-11-22 41-26 47-24Z"/><path fill="#d0cde1" d="M658 466s17 11-3 16-35-2-35-2-17 0-17-9 6-10 6-10l18 3s21-6 31 2Z"/><path fill="#2f2e41" d="M625 318a18 18 0 0 0 5 2 5 5 0 0 0 5-2 6 6 0 0 0 0-3c0-3 0-6-2-8l-4-4a18 18 0 0 1-2-3c-2-4-6-9-11-10a23 23 0 0 0-6 0h-12a21 21 0 0 0-6 0c-4 2-7 5-9 8a48 48 0 0 0-6 7 26 26 0 0 0-3 13 12 12 0 0 0 1 4 19 19 0 0 0 1 3c2 4 4 10 1 14 5-2 9-4 12-8l4-5h6a5 5 0 0 1 0 3 11 11 0 0 0 1 4 3 3 0 0 0 3 2c3-1 2-4 4-6l5-1a8 8 0 0 0 5-5c0-1 0-5 2-6 1-1 5 1 6 1Z"/><path fill="#d0cde1" d="M566 342a6 6 0 0 1 3 0c4 1 11 3 13 7l9 12s10 10 8 17-10 14-10 14 2 33-8 42-15 2-15 10-33 33-39 18c0 0 3-29 2-39s1-71 37-81Z"/><path fill="#d0cde1" d="M583 355s32 24 26 34c0 0-19 9-23 9s-21-19-25-21-7-30 22-22Z"/><path fill="#2f2e41" d="M494 376c-5 2-10 6-11 11v7c-1 6-6 10-10 14s-8 9-8 15c-1 6 4 12 3 18-1 7-8 12-10 19-2 4 0 9 3 13 4 8 13 14 21 17s18 3 28 3c11 0 23-1 31-8a25 25 0 0 0 9-17c1-8-3-17 0-25 1-6 5-10 4-16 0-5-5-9-8-13s-5-9-6-13l-6-16-5-9c-5-3-13-3-19-2l-16 2Z"/><path fill="#ffb9b9" d="M496 422s2 9-18 19 2 21 2 21l24 5s24-3 26-7 8-18 6-20a31 31 0 0 0-3-4s-16-2-15-10-22-4-22-4Z"/><path d="M496 422s2 9-18 19 2 21 2 21l24 5s24-3 26-7 8-18 6-20a31 31 0 0 0-3-4s-16-2-15-10-22-4-22-4Z" opacity=".1"/><circle cx="508.6" cy="414.7" r="21.3" fill="#ffb9b9"/><path fill="#ff6584" d="M506 460s-25-2-26-20c0 0-9-1-12 2s-11 4-11 11 15 27 15 27 8 26 4 31-4 16-4 16 34-2 39 0 27 3 28 0-1-36-1-36 6-8 4-17l16-18s-6-18-15-18c0 0-13-4-13-2s6 20-24 24Z"/><path fill="#ffb9b9" d="M447 518s6 9 21 11 18-3 16-4l-17-8-9-7Zm108-8-17 10s-22-1-14 5 25 4 25 4l15-7Z"/><path fill="#2f2e41" d="M469 527s-16 40 3 46 73 4 85-4 15-18 13-22-15-12-24-13l-77-7Z"/><path d="M469 527s-16 40 3 46 73 4 85-4 15-18 13-22-15-12-24-13l-77-7Z" opacity=".1"/><path fill="#2f2e41" d="M544 530s57-21 56 4-36 31-36 31l-11 2-58 2s2-11-3-12l16-5 42-15c3-1 10-6 16-5 0 0 7-5 14-4l-21 1Z"/><path d="M544 530s57-21 56 4-36 31-36 31l-11 2-58 2s2-11-3-12l16-5 42-15c3-1 10-6 16-5 0 0 7-5 14-4l-21 1Z" opacity=".1"/><path fill="#2f2e41" d="m534 533 8 16 43-15 3-9-11-2-23 4-10 3-10 3z"/><path d="m534 533 8 16 43-15 3-9-11-2-23 4-10 3-10 3z" opacity=".1"/><path fill="#2f2e41" d="M443 553s12 16 27 20 22-2 22-2l-4-18-2-12-9-6-17-8-21-7h-8l8 21Z"/><path fill="#f2f2f2" d="M458 561s2 19 6 21 13-2 16-3l11-7s-31-12-33-11Z"/><path fill="#ffb9b9" d="m518 563 13 2-1 15-18-4 6-13z"/><path fill="#f2f2f2" d="M526 567s-6 8 0 12l4 3 15 4c1 2 6-2 6-2v-21c-1-1-8-3-9-2s-8 4-13 2Z"/><path fill="#2f2e41" d="M473 532s-46-27-54-17-15 24 6 34 88 33 88 33 10-15 10-19l-41-18c-6-2-30-16-33-18l-8-5Z"/><path fill="#ff6584" d="m460 450-3 2s-6 15-6 24-9 35-8 38 1 6 5 9c0 0 5-12 14-10l12-41Zm93 0 5 6 3 10 8 32c1 1 3 18 0 22s-10 7-10 7 4-14-8-15l1-5-12-40Z"/><path fill="#3f3d56" d="M461 495v35a8 8 0 0 0 8 9l74 1a8 8 0 0 0 8-8l1-35a8 8 0 0 0-8-9l-74-1a8 8 0 0 0-9 8Z"/><ellipse cx="509.9" cy="401.7" fill="#2f2e41" rx="22.9" ry="12.3"/><circle cx="506" cy="513.7" r="5.3" fill="#f2f2f2"/></svg>