<svg xmlns="http://www.w3.org/2000/svg" class="injected-svg DownloadModal__ImageFile-sc-p17csy-5 iIfSkb grid_media" data-name="Layer 1" viewBox="0 0 1041 554"><defs><linearGradient id="a" x1="597.8" x2="597.8" y1="725.4" y2="347.7" gradientUnits="userSpaceOnUse"><stop offset="0" stop-color="gray" stop-opacity=".3"/><stop offset=".5" stop-color="gray" stop-opacity=".1"/><stop offset="1" stop-color="gray" stop-opacity=".1"/></linearGradient></defs><path fill="#6c63ff" d="m961 438-3 8-5 11-3 5-23 45a73 73 0 0 1-64 39l-152 2h-61l-17 1h-1l-107 1-95 1h-11l-69 1h-46l-141 2h-42a88 88 0 0 1-27-4 86 86 0 0 1-39-25c-18-20-32-43-40-68l-4-11c-31-105 7-239 74-329l9-11c21-25 44-47 69-62 44-27 93-34 141-12a315 315 0 0 0 126 31c84 3 163-27 256-47l11-2C763 1 836-6 924 8a189 189 0 0 1 26 7q6 1 11 4c42 17 65 48 74 87l3 11c17 95-33 228-77 321Z" opacity=".1"/><g fill="#6c63ff" opacity=".1"><path d="M163 44v510h-42a88 88 0 0 1-27-4V106c21-25 44-47 69-62Z"/><path d="M1038 117H85l9-11h942l2 11Z"/><path d="M961 19v427h-3l-5 11-3 4V15q6 1 11 4Zm-264-5v534h-11V16l11-2ZM430 63v488h-11V63h11Z"/><path d="m958 446-5 11H15l-4-11Z"/></g><path fill="#3f3d56" d="M212 266h19v58h-19zm511-3h19v61h-19z"/><path fill="#65617d" d="M863 534v13l-152 1h-1l-58 1h-20l-107 1-175 1-45 1-199 2v-15l47-28 93-1h5l45-1h55l278-2h12l38-1h53l75-1 56 29z"/><path d="M863 534v13l-152 1h-1l-58 1h-20l-107 1-175 1-45 1-199 2v-15l47-28 93-1h5l45-1h55l278-2h12l38-1h53l75-1 56 29z" opacity=".2"/><path fill="#3f3d56" d="M296 484v24a6 6 0 0 1-3 6 6 6 0 0 1-3 0l-35 1a6 6 0 0 1-2-1 6 6 0 0 1-4-5v-25Z"/><path d="M296 484v24a6 6 0 0 1-3 6 6 6 0 0 1-3 0l-35 1a6 6 0 0 1-2-1 6 6 0 0 1-4-5v-25Z" opacity=".1"/><path fill="#3f3d56" d="M298 484v24a6 6 0 0 1-3 6 6 6 0 0 1-3 0l-35 1a6 6 0 0 1-2-1 6 6 0 0 1-4-5v-25Zm383 0h47v32h-47z"/><path d="M681 484h47v32h-47z" opacity=".1"/><path fill="#3f3d56" d="M679 484h47v32h-47z"/><path d="M231 266v6l-19-1v-5h19z" opacity=".1"/><path fill="#65617d" d="m356 104-23 164a4 4 0 0 1-5 4l-182-5h-4a4 4 0 0 1-4-5l26-171a4 4 0 0 1 4-4l184 13a4 4 0 0 1 4 4Z"/><path fill="#6c63ff" d="m176 99-19 151 168 6 20-146-169-11z"/><rect width="204.7" height="173.3" x="385" y="97" fill="#65617d" rx="5.3" ry="5.3"/><path fill="#6c63ff" d="M394 109h186v144H394z"/><path d="M742 263v4h-19v-4h19z" opacity=".1"/><path fill="#65617d" d="M828 260a3 3 0 0 1-3 3l-188 4a3 3 0 0 1-3-3L618 97a3 3 0 0 1 3-4l186-9h2a3 3 0 0 1 3 3Z"/><path fill="#6c63ff" d="m629 103 170-8 14 152-168 4-16-148z"/><path d="M828 260a3 3 0 0 1-3 3L807 84h2a3 3 0 0 1 3 3ZM168 87l-22 180h-4a4 4 0 0 1-4-5l26-171a4 4 0 0 1 4-4Zm44 219h19v17h-19zm86 178v5l-47 1v-6h47z" opacity=".1"/><path fill="#65617d" d="M381 312v169a4 4 0 0 1-3 4l-192 5a4 4 0 0 1-4-4V312a4 4 0 0 1 4-4h191a4 4 0 0 1 4 4Z"/><path d="M186 308v182a4 4 0 0 1-4-4V312a4 4 0 0 1 4-4Z" opacity=".1"/><path fill="#d4dfec" d="M195 319h177v148l-177 4V319z"/><path d="M723 306h19v17h-19zm3 178v6l-47-1v-5h47z" opacity=".1"/><path fill="#65617d" d="M788 312v174a4 4 0 0 1-4 4l-191-5a4 4 0 0 1-4-4V312a4 4 0 0 1 4-4h191a4 4 0 0 1 4 4Z"/><path d="M788 312v174a4 4 0 0 1-4 4V308a4 4 0 0 1 4 4Z" opacity=".1"/><path fill="#d4dfec" d="M776 319H598v148l178 4V319z"/><path fill="#65617d" d="M584 312v169a4 4 0 0 1-4 4l-192 5a4 4 0 0 1-4-4V312a4 4 0 0 1 4-4h192a4 4 0 0 1 4 4Z"/><path fill="#d4dfec" d="M397 319h178v148l-178 4V319z"/><path d="M863 534v13l-152 1h-1l-58 1h-20l-107 1-175 1-45 1-199 2v-15l203-2h41l283-2h87l143-1z" opacity=".1"/><circle cx="487.3" cy="272.2" r="51.3" fill="#fbbebe"/><path fill="url(#a)" d="m384 725 4-15v-2l6-26 1-6 7-17 7-18a61 61 0 0 0 3-10 5 5 0 0 0 0-2 15 15 0 0 1-1-3c0-6 2-16 5-20 3-5 6-24 6-24s5 1 6-4a6 6 0 0 0 0-1 7 7 0 0 0 0-1c-1-6 15-13 23-14a20 20 0 0 1 3-1 27 27 0 0 0 7-1l3-1 12-5a1319 1319 0 0 0 40-18 28 28 0 0 1 16-19v-18h-1a16 16 0 0 1-3-4 15 15 0 0 1-2-3l-2-11a84 84 0 0 0-4-11c-3-5-4-11-6-17l-3-10-2-5-1-3a13 13 0 0 1 0-2 10 10 0 0 1 0-4 32 32 0 0 1 2-3 8 8 0 0 0 0-2 6 6 0 0 0 0-1 18 18 0 0 0 0-4 25 25 0 0 1-1-3 28 28 0 0 1 4-16 25 25 0 0 1 2-3l1-1c-1 1-4 1-5-1a4 4 0 0 1-1 0 4 4 0 0 1 0-1c-1-3 1-5 2-7a18 18 0 0 1 6-5 17 17 0 0 1 3-1 15 15 0 0 1 2-1h-6a14 14 0 0 1 13-11h1a12 12 0 0 1 2 0 4 4 0 0 1-3-4 14 14 0 0 0 10 3 30 30 0 0 1 0-4 33 33 0 0 1 0-4 8 8 0 0 0 6 2l-2-3a9 9 0 0 0 7 2 7 7 0 0 0 2 0l-1-1a10 10 0 0 1-1-2 7 7 0 0 1 0-1 9 9 0 0 1 0-5c3 3 7 6 11 3s5-7 11-7a10 10 0 0 1 9 6 7 7 0 0 1 7-2 7 7 0 0 1 4 7h9c3 1 4 4 2 7-1 1-4 2-3 4v1l1 1 15 11c3 2 5 5 6 8a9 9 0 0 1-1 2v3a20 20 0 0 0-1 6l1 1c1 8 7 15 8 22v1a18 18 0 0 1 0 3l-5 14-7 29a100 100 0 0 1-2 10 27 27 0 0 1-5 10 16 16 0 0 1-3 3 19 19 0 0 1-3 1s0 0 0 1v2l3 14 1 2c12 5 14 14 14 18a10 10 0 0 1 0 1s19 1 26 6a20 20 0 0 0 5 3 83 83 0 0 0 9 2 204 204 0 0 0 14 4l20 4c10 2 31 22 31 22s2 21 5 24 7 14 7 14l16 29 7 13h5c1 0 2 0 3 2l4 3 2 2 1 2s7 0 9 6c6-1 13 0 19 2a14 14 0 0 1 2 1 9 9 0 0 1 4 6 8 8 0 0 1 0 1v2c-1 7-5 14-10 18v2l-3 6a63 63 0 0 1-10 13l-58 1v-1l-11-13-6-7v2l-1 5-1 13v2-1l-107 1-176 2h-45Z" transform="translate(-79 -173)"/><path fill="#fbbebe" d="M539 377s-100 12-90 0c3-4 4-17 4-32l-1-13-3-44s87-41 77-8c-4 13-3 31 0 49l3 14a345 345 0 0 0 10 34Z"/><path d="M539 377s-100 12-90 0c3-4 4-17 4-32 15-6 34-1 34-1 21-4 34-4 42-1a345 345 0 0 0 10 34Z" opacity=".1"/><path fill="#6c63ff" d="M350 553v-1l175-2 107-1h1v1-1l1-14 1-5v-3l6-20 6-21 6-17 8-27-7-13c-2-3-5-24-5-24s-22-20-31-23l-20-4a281 281 0 0 1-14-3 88 88 0 0 1-9-3 21 21 0 0 1-5-2c-7-5-26-6-26-6a10 10 0 0 0 0-1v-2h-1v-1a5 5 0 0 0 0-1 17 17 0 0 0-1-3v-1a18 18 0 0 0-2-2v-1a20 20 0 0 0-3-3h-1a5 5 0 0 0-1-1l-1-1-3-1-2-1h-2l-1-1h-2l-3-1h-7a125 125 0 0 0-27 3 72 72 0 0 0-18-2h-6l-1 1h-3a34 34 0 0 0-4 1l-1 1h-1a23 23 0 0 0-2 1h-1a28 28 0 0 0-6 5l-1 1a24 24 0 0 0-2 2l-1 1a27 27 0 0 0-1 3l-1 1a33 33 0 0 0-2 5v2l-39 16-13 5-3 1a27 27 0 0 1-6 1 20 20 0 0 0-3 0c-8 2-22 7-23 13a4 4 0 0 0 0 2c1 7-6 6-6 6s-3 18-6 23c-3 4-5 12-5 18a20 20 0 0 0 1 6l-3 9-6 18-8 19-1 4a526 526 0 0 1-10 43h45v1Z"/><path d="M366 435s57 29 78 26Zm116-12s56 18 74 20-74-20-74-20Zm62-58c-29 5-84 4-108 3 9-31 51-20 51-20 53-11 57 11 57 17Z" opacity=".1"/><path fill="#6c63ff" d="M544 363c-29 5-84 4-108 3 9-31 51-20 51-20 53-11 57 11 57 17Z"/><path fill="#fbbebe" d="M698 499s34-5 34 10-17 26-17 26Z"/><path d="M526 329a47 47 0 0 1-5 1c-10 4-21 8-33 9s-23 0-33-5a29 29 0 0 1-3-2l-3-44s87-41 77-8c-4 13-3 31 0 49Z" opacity=".1"/><path fill="#3f3d56" d="M473 192a9 9 0 0 1-8-2l2 3a8 8 0 0 1-7-2 34 34 0 0 0 0 8 15 15 0 0 1-9-3 4 4 0 0 0 3 4 14 14 0 0 0-16 11h5a18 18 0 0 0-10 6c-2 2-3 5-2 7s4 4 6 3a28 28 0 0 0-7 22 14 14 0 0 1 1 6l-2 4c-1 3 0 7 1 9l5 16 5 16a82 82 0 0 1 4 11c1 5 1 10 4 14a20 20 0 0 0 7 7c10 5 22 6 33 5s23-5 33-9a31 31 0 0 0 7-3c8-5 9-15 11-23 1-10 3-20 7-29 2-6 5-11 5-17-1-8-7-14-9-22a19 19 0 0 1 0-8 18 18 0 0 0 1-4c0-4-3-6-5-8l-17-13c0-2 3-3 4-4 2-3 0-6-3-7h-8a7 7 0 0 0-12-5 10 10 0 0 0-8-6c-7-1-7 5-11 7s-8-1-11-3a9 9 0 0 0 1 9Z"/><path fill="#6c63ff" d="m723 529-3 6a69 69 0 0 1-9 13h-1l-58 1h-2v-1l-11-13-4-5-1-1-8-10 3-12 5-21v-1l1-4 1-3 2-10 8-33 15 7 15 27 8 15h5l4 3a75 75 0 0 1 6 6s7 0 9 6a40 40 0 0 0 3 7 241 241 0 0 0 11 23h1Z"/><path d="M637 484v4l-2 19-1 22-1 6-1 14-107 1-175 2v1-16l1-28 1-24v-2a11 11 0 0 1 11-10l18 1h3a1619 1619 0 0 0 241-1 11 11 0 0 1 12 11Z" opacity=".1"/><path fill="#3f3d56" d="M350 553v-1l175-2 107-1h1l1-14v-6l2-22 1-18v-1a11 11 0 0 0 0-2 10 10 0 0 0-2-5 11 11 0 0 0-10-4 937 937 0 0 1-41 3c-79 5-157 1-200-2h-3l-18-1a11 11 0 0 0-11 8 11 11 0 0 0 0 2l-1 22-1 28v16Z"/><path d="m637 491-1 16-2 22v6l-1 13v2-1h-1l-107 1-175 2v-15l1-28 1-19a6 6 0 0 1 3-5 6 6 0 0 1 4-1 996 996 0 0 0 73 4 1563 1563 0 0 0 198-4 6 6 0 0 1 4 1 5 5 0 0 1 1 1 6 6 0 0 1 2 2 4 4 0 0 1 0 1 6 6 0 0 1 0 2Zm-339 14v3a6 6 0 0 1-3 6h-40a6 6 0 0 1-4-5v-3Z" opacity=".1"/><path fill="#3f3d56" d="m299 516-53 1v-9l53-1v9z"/><path d="m299 516-53 1v-9l53-1v9z" opacity=".1"/><path fill="#3f3d56" d="m301 516-53 1v-9l53-1v9z"/><path d="M474 189a10 10 0 0 1-2-5 9 9 0 0 0 0 5 9 9 0 0 0 2 0Zm-13 6a35 35 0 0 1 0-3v3Zm81 34a18 18 0 0 1 1-3 18 18 0 0 0 1-5 6 6 0 0 0-1-1v3a19 19 0 0 0-1 6Zm-20-31 1 1a20 20 0 0 0 2-3 4 4 0 0 0 1-3 3 3 0 0 1-1 0c-1 2-4 3-3 5Zm-83 9a12 12 0 0 0 0 3 18 18 0 0 1 5-2Zm14-10a15 15 0 0 1-2-2 4 4 0 0 0 0 1 12 12 0 0 1 2 1Zm98 58c0 5-3 10-5 15l-7 28c-1 9-3 19-10 24a30 30 0 0 1-7 3l-33 9c-11 2-23 0-33-6a20 20 0 0 1-7-6c-3-4-3-10-4-14a82 82 0 0 0-4-11c-3-5-4-11-6-16l-5-16a29 29 0 0 1-1-5l1 8 5 16c2 5 3 11 6 16a82 82 0 0 1 4 11c1 4 1 10 4 14a20 20 0 0 0 7 6c10 6 22 7 33 6s22-5 33-9a30 30 0 0 0 7-3c7-5 9-15 10-24l7-28c3-6 5-12 5-17v-1Zm-120-3v-1a14 14 0 0 0 0-5 27 27 0 0 1-1-3 27 27 0 0 0 1 6v3Zm3-25a28 28 0 0 1 3-4c-2 2-5 1-6-2a6 6 0 0 0 0 3 4 4 0 0 0 3 3Zm250 257s3 11 0 21 0-21 0-21Zm14 11s1 15-2 18 2-18 2-18Z" opacity=".1"/><path fill="none" stroke="#6c63ff" stroke-miterlimit="10" stroke-width="2" d="m199 343 102-1m-102 13 102-1m-102 14 102-1"/></svg>